<mxfile host="app.diagrams.net" modified="2024-05-31T15:52:40.282Z" agent="Mozilla/5.0 (Windows NT 10.0; Win64; x64) AppleWebKit/537.36 (KHTML, like Gecko) Chrome/125.0.0.0 Safari/537.36" etag="cGuO9atw6BA7XU5-SvkQ" version="24.4.13" type="google">
  <diagram id="lh7WbV4Iy8WrtDELX4y8" name="Caso de Uso">
    <mxGraphModel grid="1" page="1" gridSize="10" guides="1" tooltips="1" connect="1" arrows="1" fold="1" pageScale="1" pageWidth="827" pageHeight="1169" math="0" shadow="0">
      <root>
        <mxCell id="0" />
        <mxCell id="1" parent="0" />
        <mxCell id="MmRivBiSD92z09sdU0Ch-2" value="Instructor" style="shape=umlActor;verticalLabelPosition=bottom;verticalAlign=top;html=1;outlineConnect=0;" vertex="1" parent="1">
          <mxGeometry x="180" y="705" width="30" height="60" as="geometry" />
        </mxCell>
        <mxCell id="MmRivBiSD92z09sdU0Ch-3" value="System" style="shape=umlFrame;whiteSpace=wrap;html=1;pointerEvents=0;" vertex="1" parent="1">
          <mxGeometry x="421" y="470" width="549" height="1010" as="geometry" />
        </mxCell>
        <mxCell id="Rz5tokOLX-X4fyQ1hG-s-20" style="rounded=0;orthogonalLoop=1;jettySize=auto;html=1;exitX=1;exitY=0.5;exitDx=0;exitDy=0;entryX=0;entryY=0.5;entryDx=0;entryDy=0;dashed=1;" edge="1" parent="1" source="Rz5tokOLX-X4fyQ1hG-s-25" target="gPLNGI23Kw-Nau3DVjQg-1">
          <mxGeometry relative="1" as="geometry" />
        </mxCell>
        <mxCell id="MmRivBiSD92z09sdU0Ch-8" value="Reportar casos" style="ellipse;whiteSpace=wrap;html=1;" vertex="1" parent="1">
          <mxGeometry x="521" y="750" width="100" height="40" as="geometry" />
        </mxCell>
        <mxCell id="MmRivBiSD92z09sdU0Ch-11" value="Ver historial" style="ellipse;whiteSpace=wrap;html=1;" vertex="1" parent="1">
          <mxGeometry x="521" y="680" width="100" height="40" as="geometry" />
        </mxCell>
        <mxCell id="MmRivBiSD92z09sdU0Ch-14" value="Iniciar sesiÃ³n" style="ellipse;whiteSpace=wrap;html=1;" vertex="1" parent="1">
          <mxGeometry x="521" y="520" width="100" height="40" as="geometry" />
        </mxCell>
        <mxCell id="Rz5tokOLX-X4fyQ1hG-s-12" style="rounded=0;orthogonalLoop=1;jettySize=auto;html=1;exitX=1;exitY=0.3333333333333333;exitDx=0;exitDy=0;exitPerimeter=0;entryX=0;entryY=0.5;entryDx=0;entryDy=0;endArrow=none;endFill=0;" edge="1" parent="1" source="MmRivBiSD92z09sdU0Ch-15" target="Rz5tokOLX-X4fyQ1hG-s-11">
          <mxGeometry relative="1" as="geometry" />
        </mxCell>
        <mxCell id="MmRivBiSD92z09sdU0Ch-15" value="Administrador&lt;div&gt;&lt;br&gt;&lt;/div&gt;" style="shape=umlActor;verticalLabelPosition=bottom;verticalAlign=top;html=1;outlineConnect=0;" vertex="1" parent="1">
          <mxGeometry x="180" y="985" width="30" height="60" as="geometry" />
        </mxCell>
        <mxCell id="Rz5tokOLX-X4fyQ1hG-s-19" style="rounded=0;orthogonalLoop=1;jettySize=auto;html=1;exitX=1;exitY=0.5;exitDx=0;exitDy=0;entryX=0;entryY=0.5;entryDx=0;entryDy=0;dashed=1;" edge="1" parent="1" source="Rz5tokOLX-X4fyQ1hG-s-23" target="gPLNGI23Kw-Nau3DVjQg-1">
          <mxGeometry relative="1" as="geometry" />
        </mxCell>
        <mxCell id="MmRivBiSD92z09sdU0Ch-17" value="Registrar usuario" style="ellipse;whiteSpace=wrap;html=1;" vertex="1" parent="1">
          <mxGeometry x="514.13" y="840" width="100" height="35" as="geometry" />
        </mxCell>
        <mxCell id="MmRivBiSD92z09sdU0Ch-18" value="Visualizar usuario" style="ellipse;whiteSpace=wrap;html=1;" vertex="1" parent="1">
          <mxGeometry x="514.13" y="950" width="100" height="35" as="geometry" />
        </mxCell>
        <mxCell id="MmRivBiSD92z09sdU0Ch-19" style="rounded=0;orthogonalLoop=1;jettySize=auto;html=1;entryX=0;entryY=0.5;entryDx=0;entryDy=0;endArrow=none;endFill=0;exitX=0.5;exitY=0.5;exitDx=0;exitDy=0;exitPerimeter=0;" edge="1" parent="1" source="MmRivBiSD92z09sdU0Ch-2" target="MmRivBiSD92z09sdU0Ch-11">
          <mxGeometry relative="1" as="geometry">
            <mxPoint x="390" y="765" as="sourcePoint" />
            <mxPoint x="550" y="530" as="targetPoint" />
          </mxGeometry>
        </mxCell>
        <mxCell id="MmRivBiSD92z09sdU0Ch-20" style="rounded=0;orthogonalLoop=1;jettySize=auto;html=1;entryX=0;entryY=0.5;entryDx=0;entryDy=0;endArrow=none;endFill=0;exitX=0.5;exitY=0.5;exitDx=0;exitDy=0;exitPerimeter=0;" edge="1" parent="1" source="MmRivBiSD92z09sdU0Ch-2" target="MmRivBiSD92z09sdU0Ch-8">
          <mxGeometry relative="1" as="geometry">
            <mxPoint x="310" y="760" as="sourcePoint" />
            <mxPoint x="550" y="710" as="targetPoint" />
          </mxGeometry>
        </mxCell>
        <mxCell id="MmRivBiSD92z09sdU0Ch-22" style="rounded=0;orthogonalLoop=1;jettySize=auto;html=1;exitX=1;exitY=0.3333333333333333;exitDx=0;exitDy=0;exitPerimeter=0;entryX=0;entryY=0.5;entryDx=0;entryDy=0;endArrow=none;endFill=0;" edge="1" parent="1" source="MmRivBiSD92z09sdU0Ch-15" target="MmRivBiSD92z09sdU0Ch-17">
          <mxGeometry relative="1" as="geometry">
            <mxPoint x="390" y="720" as="sourcePoint" />
            <mxPoint x="560" y="800" as="targetPoint" />
          </mxGeometry>
        </mxCell>
        <mxCell id="MmRivBiSD92z09sdU0Ch-23" style="rounded=0;orthogonalLoop=1;jettySize=auto;html=1;exitX=1;exitY=0.3333333333333333;exitDx=0;exitDy=0;exitPerimeter=0;entryX=0;entryY=0.5;entryDx=0;entryDy=0;endArrow=none;endFill=0;" edge="1" parent="1" source="MmRivBiSD92z09sdU0Ch-15" target="MmRivBiSD92z09sdU0Ch-18">
          <mxGeometry relative="1" as="geometry">
            <mxPoint x="380" y="1128" as="sourcePoint" />
            <mxPoint x="550" y="1058" as="targetPoint" />
          </mxGeometry>
        </mxCell>
        <mxCell id="MmRivBiSD92z09sdU0Ch-72" value="Ver estado" style="ellipse;whiteSpace=wrap;html=1;" vertex="1" parent="1">
          <mxGeometry x="521" y="610" width="100" height="40" as="geometry" />
        </mxCell>
        <mxCell id="MmRivBiSD92z09sdU0Ch-73" style="rounded=0;orthogonalLoop=1;jettySize=auto;html=1;exitX=0;exitY=0.5;exitDx=0;exitDy=0;endArrow=none;endFill=0;entryX=0.5;entryY=0.5;entryDx=0;entryDy=0;entryPerimeter=0;" edge="1" parent="1" source="MmRivBiSD92z09sdU0Ch-72" target="MmRivBiSD92z09sdU0Ch-2">
          <mxGeometry relative="1" as="geometry">
            <mxPoint x="390" y="765" as="targetPoint" />
          </mxGeometry>
        </mxCell>
        <mxCell id="Rz5tokOLX-X4fyQ1hG-s-9" style="rounded=0;orthogonalLoop=1;jettySize=auto;html=1;exitX=0;exitY=0.3333333333333333;exitDx=0;exitDy=0;exitPerimeter=0;entryX=1;entryY=0.5;entryDx=0;entryDy=0;endArrow=none;endFill=0;" edge="1" parent="1" source="MmRivBiSD92z09sdU0Ch-76" target="gPLNGI23Kw-Nau3DVjQg-1">
          <mxGeometry relative="1" as="geometry" />
        </mxCell>
        <mxCell id="MmRivBiSD92z09sdU0Ch-76" value="Sistema&lt;div&gt;&lt;br&gt;&lt;/div&gt;" style="shape=umlActor;verticalLabelPosition=bottom;verticalAlign=top;html=1;" vertex="1" parent="1">
          <mxGeometry x="1120" y="790" width="30" height="60" as="geometry" />
        </mxCell>
        <mxCell id="gPLNGI23Kw-Nau3DVjQg-1" value="Dar prioridad" style="ellipse;whiteSpace=wrap;html=1;" vertex="1" parent="1">
          <mxGeometry x="781" y="790" width="100" height="35" as="geometry" />
        </mxCell>
        <mxCell id="gPLNGI23Kw-Nau3DVjQg-9" style="rounded=0;orthogonalLoop=1;jettySize=auto;html=1;exitX=1;exitY=0.3333333333333333;exitDx=0;exitDy=0;exitPerimeter=0;entryX=0;entryY=0.5;entryDx=0;entryDy=0;endArrow=none;endFill=0;" edge="1" parent="1" source="gPLNGI23Kw-Nau3DVjQg-6" target="gPLNGI23Kw-Nau3DVjQg-7">
          <mxGeometry relative="1" as="geometry" />
        </mxCell>
        <mxCell id="gPLNGI23Kw-Nau3DVjQg-10" style="rounded=0;orthogonalLoop=1;jettySize=auto;html=1;exitX=1;exitY=0.3333333333333333;exitDx=0;exitDy=0;exitPerimeter=0;entryX=0;entryY=0.5;entryDx=0;entryDy=0;endArrow=none;endFill=0;" edge="1" parent="1" source="gPLNGI23Kw-Nau3DVjQg-6" target="gPLNGI23Kw-Nau3DVjQg-8">
          <mxGeometry relative="1" as="geometry" />
        </mxCell>
        <mxCell id="R_0sUCDqXXY_c-cNGSCG-5" style="rounded=0;orthogonalLoop=1;jettySize=auto;html=1;entryX=0;entryY=0.5;entryDx=0;entryDy=0;endArrow=none;endFill=0;exitX=1;exitY=0.3333333333333333;exitDx=0;exitDy=0;exitPerimeter=0;" edge="1" parent="1" source="gPLNGI23Kw-Nau3DVjQg-6" target="v0um87Z71XnuI7ePmmdb-1">
          <mxGeometry relative="1" as="geometry" />
        </mxCell>
        <mxCell id="jb-5SbUCB1I8pJxJVL-R-2" style="rounded=0;orthogonalLoop=1;jettySize=auto;html=1;exitX=1;exitY=0.3333333333333333;exitDx=0;exitDy=0;exitPerimeter=0;entryX=0;entryY=0.5;entryDx=0;entryDy=0;endArrow=none;endFill=0;" edge="1" parent="1" source="gPLNGI23Kw-Nau3DVjQg-6" target="jb-5SbUCB1I8pJxJVL-R-1">
          <mxGeometry relative="1" as="geometry" />
        </mxCell>
        <mxCell id="gPLNGI23Kw-Nau3DVjQg-6" value="Soporte" style="shape=umlActor;verticalLabelPosition=bottom;verticalAlign=top;html=1;outlineConnect=0;" vertex="1" parent="1">
          <mxGeometry x="180" y="1250" width="30" height="60" as="geometry" />
        </mxCell>
        <mxCell id="gPLNGI23Kw-Nau3DVjQg-7" value="Recibir notificaciones" style="ellipse;whiteSpace=wrap;html=1;" vertex="1" parent="1">
          <mxGeometry x="521" y="1180" width="100" height="35" as="geometry" />
        </mxCell>
        <mxCell id="gPLNGI23Kw-Nau3DVjQg-8" value="Decidir estado" style="ellipse;whiteSpace=wrap;html=1;" vertex="1" parent="1">
          <mxGeometry x="521" y="1250" width="100" height="35" as="geometry" />
        </mxCell>
        <mxCell id="v0um87Z71XnuI7ePmmdb-1" value="Ver casos" style="ellipse;whiteSpace=wrap;html=1;" vertex="1" parent="1">
          <mxGeometry x="521" y="1125" width="100" height="35" as="geometry" />
        </mxCell>
        <mxCell id="v0um87Z71XnuI7ePmmdb-35" value="&amp;lt;&amp;lt;include&amp;gt;&amp;gt;" style="text;strokeColor=none;fillColor=none;spacingLeft=4;spacingRight=4;overflow=hidden;rotatable=0;points=[[0,0.5],[1,0.5]];portConstraint=eastwest;fontSize=10;whiteSpace=wrap;html=1;dashed=1;dashPattern=12 12;direction=south;" vertex="1" parent="1">
          <mxGeometry x="528.26" y="890" width="71.75" height="30" as="geometry" />
        </mxCell>
        <mxCell id="xhQeVwiXVVw_yMUnogQu-4" style="rounded=0;orthogonalLoop=1;jettySize=auto;html=1;entryX=0;entryY=0.5;entryDx=0;entryDy=0;dashed=1;endArrow=none;endFill=0;" edge="1" parent="1" source="MmRivBiSD92z09sdU0Ch-17" target="v0um87Z71XnuI7ePmmdb-35">
          <mxGeometry relative="1" as="geometry" />
        </mxCell>
        <mxCell id="xhQeVwiXVVw_yMUnogQu-5" style="rounded=0;orthogonalLoop=1;jettySize=auto;html=1;entryX=1.021;entryY=0.453;entryDx=0;entryDy=0;entryPerimeter=0;dashed=1;endArrow=none;endFill=0;" edge="1" parent="1" source="MmRivBiSD92z09sdU0Ch-18" target="v0um87Z71XnuI7ePmmdb-35">
          <mxGeometry relative="1" as="geometry" />
        </mxCell>
        <mxCell id="Rz5tokOLX-X4fyQ1hG-s-6" style="rounded=0;orthogonalLoop=1;jettySize=auto;html=1;exitX=1;exitY=0.3333333333333333;exitDx=0;exitDy=0;exitPerimeter=0;entryX=0;entryY=0.5;entryDx=0;entryDy=0;endArrow=none;endFill=0;" edge="1" parent="1" source="Rz5tokOLX-X4fyQ1hG-s-2" target="MmRivBiSD92z09sdU0Ch-14">
          <mxGeometry relative="1" as="geometry" />
        </mxCell>
        <mxCell id="Rz5tokOLX-X4fyQ1hG-s-2" value="Usuario" style="shape=umlActor;verticalLabelPosition=bottom;verticalAlign=top;html=1;outlineConnect=0;" vertex="1" parent="1">
          <mxGeometry x="180" y="510" width="30" height="60" as="geometry" />
        </mxCell>
        <mxCell id="Rz5tokOLX-X4fyQ1hG-s-11" value="Visualizar todos los reportes" style="ellipse;whiteSpace=wrap;html=1;" vertex="1" parent="1">
          <mxGeometry x="503.93" y="1040" width="134.13" height="45" as="geometry" />
        </mxCell>
        <mxCell id="Rz5tokOLX-X4fyQ1hG-s-14" style="rounded=0;orthogonalLoop=1;jettySize=auto;html=1;exitX=0;exitY=0.5;exitDx=0;exitDy=0;entryX=1;entryY=0.5;entryDx=0;entryDy=0;dashed=1;" edge="1" parent="1" source="Rz5tokOLX-X4fyQ1hG-s-27" target="Rz5tokOLX-X4fyQ1hG-s-11">
          <mxGeometry relative="1" as="geometry" />
        </mxCell>
        <mxCell id="Rz5tokOLX-X4fyQ1hG-s-13" value="Filtrar datos" style="ellipse;whiteSpace=wrap;html=1;" vertex="1" parent="1">
          <mxGeometry x="781" y="1045" width="100" height="35" as="geometry" />
        </mxCell>
        <mxCell id="Rz5tokOLX-X4fyQ1hG-s-16" style="rounded=0;orthogonalLoop=1;jettySize=auto;html=1;exitX=0;exitY=0.5;exitDx=0;exitDy=0;entryX=1;entryY=0.5;entryDx=0;entryDy=0;dashed=1;" edge="1" parent="1" source="Rz5tokOLX-X4fyQ1hG-s-31" target="MmRivBiSD92z09sdU0Ch-72">
          <mxGeometry relative="1" as="geometry" />
        </mxCell>
        <mxCell id="Rz5tokOLX-X4fyQ1hG-s-15" value="Ver detalle" style="ellipse;whiteSpace=wrap;html=1;" vertex="1" parent="1">
          <mxGeometry x="781" y="612.5" width="100" height="35" as="geometry" />
        </mxCell>
        <mxCell id="Rz5tokOLX-X4fyQ1hG-s-18" style="rounded=0;orthogonalLoop=1;jettySize=auto;html=1;exitX=0;exitY=0.5;exitDx=0;exitDy=0;entryX=1;entryY=0.5;entryDx=0;entryDy=0;dashed=1;" edge="1" parent="1" source="Rz5tokOLX-X4fyQ1hG-s-29" target="v0um87Z71XnuI7ePmmdb-1">
          <mxGeometry relative="1" as="geometry" />
        </mxCell>
        <mxCell id="Rz5tokOLX-X4fyQ1hG-s-17" value="Ver detalle" style="ellipse;whiteSpace=wrap;html=1;" vertex="1" parent="1">
          <mxGeometry x="781" y="1125" width="100" height="35" as="geometry" />
        </mxCell>
        <mxCell id="Rz5tokOLX-X4fyQ1hG-s-21" value="&amp;lt;&amp;lt;Extend&amp;gt;&amp;gt;" style="text;strokeColor=none;fillColor=none;spacingLeft=4;spacingRight=4;overflow=hidden;rotatable=0;points=[[0,0.5],[1,0.5]];portConstraint=eastwest;fontSize=12;whiteSpace=wrap;html=1;" vertex="1" parent="1">
          <mxGeometry x="30" y="1130" width="80" height="30" as="geometry" />
        </mxCell>
        <mxCell id="Rz5tokOLX-X4fyQ1hG-s-22" value="&amp;lt;&amp;lt;Include&amp;gt;&amp;gt;" style="text;strokeColor=none;fillColor=none;spacingLeft=4;spacingRight=4;overflow=hidden;rotatable=0;points=[[0,0.5],[1,0.5]];portConstraint=eastwest;fontSize=12;whiteSpace=wrap;html=1;" vertex="1" parent="1">
          <mxGeometry x="30" y="1170" width="80" height="30" as="geometry" />
        </mxCell>
        <mxCell id="Rz5tokOLX-X4fyQ1hG-s-24" value="" style="rounded=0;orthogonalLoop=1;jettySize=auto;html=1;exitX=1;exitY=0.5;exitDx=0;exitDy=0;entryX=0;entryY=0.5;entryDx=0;entryDy=0;dashed=1;endArrow=none;endFill=0;" edge="1" parent="1" source="MmRivBiSD92z09sdU0Ch-17" target="Rz5tokOLX-X4fyQ1hG-s-23">
          <mxGeometry relative="1" as="geometry">
            <mxPoint x="614" y="858" as="sourcePoint" />
            <mxPoint x="781" y="808" as="targetPoint" />
          </mxGeometry>
        </mxCell>
        <mxCell id="Rz5tokOLX-X4fyQ1hG-s-23" value="&amp;lt;&amp;lt;Include&amp;gt;&amp;gt;" style="text;strokeColor=none;fillColor=none;spacingLeft=4;spacingRight=4;overflow=hidden;rotatable=0;points=[[0,0.5],[1,0.5]];portConstraint=eastwest;fontSize=12;whiteSpace=wrap;html=1;" vertex="1" parent="1">
          <mxGeometry x="650" y="825" width="80" height="30" as="geometry" />
        </mxCell>
        <mxCell id="Rz5tokOLX-X4fyQ1hG-s-26" value="" style="rounded=0;orthogonalLoop=1;jettySize=auto;html=1;exitX=1;exitY=0.5;exitDx=0;exitDy=0;entryX=0;entryY=0.5;entryDx=0;entryDy=0;dashed=1;endArrow=none;endFill=0;" edge="1" parent="1" source="MmRivBiSD92z09sdU0Ch-8" target="Rz5tokOLX-X4fyQ1hG-s-25">
          <mxGeometry relative="1" as="geometry">
            <mxPoint x="621" y="770" as="sourcePoint" />
            <mxPoint x="781" y="808" as="targetPoint" />
          </mxGeometry>
        </mxCell>
        <mxCell id="Rz5tokOLX-X4fyQ1hG-s-25" value="&amp;lt;&amp;lt;Include&amp;gt;&amp;gt;" style="text;strokeColor=none;fillColor=none;spacingLeft=4;spacingRight=4;overflow=hidden;rotatable=0;points=[[0,0.5],[1,0.5]];portConstraint=eastwest;fontSize=12;whiteSpace=wrap;html=1;" vertex="1" parent="1">
          <mxGeometry x="650" y="770" width="80" height="30" as="geometry" />
        </mxCell>
        <mxCell id="Rz5tokOLX-X4fyQ1hG-s-28" value="" style="rounded=0;orthogonalLoop=1;jettySize=auto;html=1;exitX=0;exitY=0.5;exitDx=0;exitDy=0;entryX=1;entryY=0.5;entryDx=0;entryDy=0;dashed=1;endArrow=none;endFill=0;" edge="1" parent="1" source="Rz5tokOLX-X4fyQ1hG-s-13" target="Rz5tokOLX-X4fyQ1hG-s-27">
          <mxGeometry relative="1" as="geometry">
            <mxPoint x="781" y="1063" as="sourcePoint" />
            <mxPoint x="638" y="1063" as="targetPoint" />
          </mxGeometry>
        </mxCell>
        <mxCell id="Rz5tokOLX-X4fyQ1hG-s-27" value="&amp;lt;&amp;lt;Extend&amp;gt;&amp;gt;" style="text;strokeColor=none;fillColor=none;spacingLeft=4;spacingRight=4;overflow=hidden;rotatable=0;points=[[0,0.5],[1,0.5]];portConstraint=eastwest;fontSize=12;whiteSpace=wrap;html=1;" vertex="1" parent="1">
          <mxGeometry x="670" y="1047.5" width="80" height="30" as="geometry" />
        </mxCell>
        <mxCell id="Rz5tokOLX-X4fyQ1hG-s-30" value="" style="rounded=0;orthogonalLoop=1;jettySize=auto;html=1;exitX=0;exitY=0.5;exitDx=0;exitDy=0;entryX=1;entryY=0.5;entryDx=0;entryDy=0;dashed=1;endArrow=none;endFill=0;" edge="1" parent="1" source="Rz5tokOLX-X4fyQ1hG-s-17" target="Rz5tokOLX-X4fyQ1hG-s-29">
          <mxGeometry relative="1" as="geometry">
            <mxPoint x="781" y="1198" as="sourcePoint" />
            <mxPoint x="621" y="1198" as="targetPoint" />
          </mxGeometry>
        </mxCell>
        <mxCell id="Rz5tokOLX-X4fyQ1hG-s-29" value="&amp;lt;&amp;lt;Extend&amp;gt;&amp;gt;" style="text;strokeColor=none;fillColor=none;spacingLeft=4;spacingRight=4;overflow=hidden;rotatable=0;points=[[0,0.5],[1,0.5]];portConstraint=eastwest;fontSize=12;whiteSpace=wrap;html=1;" vertex="1" parent="1">
          <mxGeometry x="670" y="1127.5" width="80" height="30" as="geometry" />
        </mxCell>
        <mxCell id="Rz5tokOLX-X4fyQ1hG-s-32" value="" style="rounded=0;orthogonalLoop=1;jettySize=auto;html=1;exitX=0;exitY=0.5;exitDx=0;exitDy=0;entryX=1;entryY=0.5;entryDx=0;entryDy=0;dashed=1;endArrow=none;endFill=0;" edge="1" parent="1" source="Rz5tokOLX-X4fyQ1hG-s-15" target="Rz5tokOLX-X4fyQ1hG-s-31">
          <mxGeometry relative="1" as="geometry">
            <mxPoint x="781" y="630" as="sourcePoint" />
            <mxPoint x="621" y="630" as="targetPoint" />
          </mxGeometry>
        </mxCell>
        <mxCell id="Rz5tokOLX-X4fyQ1hG-s-31" value="&amp;lt;&amp;lt;Extend&amp;gt;&amp;gt;" style="text;strokeColor=none;fillColor=none;spacingLeft=4;spacingRight=4;overflow=hidden;rotatable=0;points=[[0,0.5],[1,0.5]];portConstraint=eastwest;fontSize=12;whiteSpace=wrap;html=1;" vertex="1" parent="1">
          <mxGeometry x="670" y="615" width="80" height="30" as="geometry" />
        </mxCell>
        <mxCell id="Rz5tokOLX-X4fyQ1hG-s-33" value="Ver historial" style="ellipse;whiteSpace=wrap;html=1;" vertex="1" parent="1">
          <mxGeometry x="520.9999999999999" y="1320" width="100" height="40" as="geometry" />
        </mxCell>
        <mxCell id="Rz5tokOLX-X4fyQ1hG-s-34" style="rounded=0;orthogonalLoop=1;jettySize=auto;html=1;exitX=0;exitY=0.5;exitDx=0;exitDy=0;entryX=1;entryY=0.3333333333333333;entryDx=0;entryDy=0;entryPerimeter=0;endArrow=none;endFill=0;" edge="1" parent="1" source="Rz5tokOLX-X4fyQ1hG-s-33" target="gPLNGI23Kw-Nau3DVjQg-6">
          <mxGeometry relative="1" as="geometry" />
        </mxCell>
        <mxCell id="jb-5SbUCB1I8pJxJVL-R-1" value="Crear anuncios" style="ellipse;whiteSpace=wrap;html=1;" vertex="1" parent="1">
          <mxGeometry x="520.9999999999999" y="1400" width="100" height="40" as="geometry" />
        </mxCell>
      </root>
    </mxGraphModel>
  </diagram>
</mxfile>
